<?xml version="1.0" encoding="utf-8"?>
<!-- Generator: Adobe Illustrator 16.0.3, SVG Export Plug-In . SVG Version: 6.00 Build 0)  -->
<!DOCTYPE svg PUBLIC "-//W3C//DTD SVG 1.1//EN" "http://www.w3.org/Graphics/SVG/1.1/DTD/svg11.dtd">
<svg version="1.1" id="Capa_1" xmlns="http://www.w3.org/2000/svg" xmlns:xlink="http://www.w3.org/1999/xlink" x="0px" y="0px"
	 width="1080px" height="1080px" viewBox="0 0 1080 1080" enable-background="new 0 0 1080 1080" xml:space="preserve">
<g>
	<defs>
		<path id="SVGID_1_" d="M457.117,449.22c3.086-0.515,5.443-1.621,7.059-3.32c1.616-1.695,3.749-5.383,6.381-11.066l51.448-119.397
			c1.361-2.88,2.038-4.833,2.038-5.865c0-1.918-1.841-3.357-5.531-4.317v-3.541h37.498v3.541c-3.688,1.183-5.535,2.732-5.535,4.647
			c0,0.812,0.681,2.655,2.033,5.535l54.11,115.084c3.991,8.482,6.631,13.463,7.909,14.936c1.274,1.476,4.068,2.733,8.357,3.763v3.54
			h-36.6v-3.54c4.378-0.585,6.57-2.211,6.57-4.869c0-1.181-0.825-3.467-2.487-6.857l-9.923-21.309l-9.297-20.191h0.086
			l-8.559-18.396l-0.171-0.36l-25.987-55.88l-49.773,117.685c-1.284,2.728-1.922,4.646-1.922,5.751c0,2.215,2.231,3.691,6.691,4.426
			v3.54h-34.397V449.22z M351.616,398.709l188.386,176.609l188.381-176.609L540.002,213.233L351.616,398.709z"/>
	</defs>
	<clipPath id="SVGID_2_">
		<use xlink:href="#SVGID_1_"  overflow="visible"/>
	</clipPath>
	
		<linearGradient id="SVGID_3_" gradientUnits="userSpaceOnUse" x1="0" y1="1080.001" x2="1" y2="1080.001" gradientTransform="matrix(-6.4706 -527.3384 -527.3384 6.4706 570068.8125 -6330.5332)">
		<stop  offset="0" style="stop-color:#6B3518"/>
		<stop  offset="0.2022" style="stop-color:#884F24"/>
		<stop  offset="0.4044" style="stop-color:#9F662F"/>
		<stop  offset="0.606" style="stop-color:#B07839"/>
		<stop  offset="0.8053" style="stop-color:#BB843F"/>
		<stop  offset="1" style="stop-color:#BE8941"/>
	</linearGradient>
	<polygon clip-path="url(#SVGID_2_)" fill="url(#SVGID_3_)" points="351.673,579.94 347.174,213.288 728.326,208.611 
		732.825,575.264 	"/>
</g>
<g>
	<defs>
		<rect id="SVGID_4_" width="1080" height="1080"/>
	</defs>
	<clipPath id="SVGID_5_">
		<use xlink:href="#SVGID_4_"  overflow="visible"/>
	</clipPath>
	<path clip-path="url(#SVGID_5_)" fill="#1A1A1A" d="M314.164,712.476v27.06c0,1.494,0.236,2.555,0.708,3.189
		c0.471,0.637,1.399,1.132,2.784,1.496v1.746h-15.55v-1.746c1.385-0.364,2.313-0.854,2.783-1.476
		c0.473-0.616,0.706-1.687,0.706-3.215v-61.589c0-1.534-0.233-2.61-0.706-3.249c-0.47-0.633-1.398-1.117-2.783-1.443v-1.746h40.862
		c5.601,0,10.026,0.296,13.282,0.903c3.256,0.598,6.082,1.646,8.483,3.136c2.476,1.531,4.476,3.623,6.003,6.285
		c1.747,3.018,2.62,6.43,2.62,10.212c0,5.684-1.885,10.318-5.646,13.909c-3.768,3.582-8.941,5.627-15.521,6.141l18.927,29.411
		c1.127,1.81,2.765,2.721,4.911,2.721v1.746h-17.238v-1.746c1.783-0.29,2.675-0.796,2.675-1.521c0-0.364-0.638-1.546-1.91-3.542
		l-16.921-26.683H314.164z M314.164,705.376h30.169c4.11,0,7.209-0.169,9.3-0.513c2.092-0.343,3.936-0.975,5.539-1.88
		c3.746-2.187,5.617-5.839,5.617-10.973c0-5.158-1.931-8.83-5.785-11.017c-1.709-0.942-3.608-1.583-5.702-1.911
		c-2.09-0.327-5.336-0.488-9.736-0.488h-29.402V705.376z"/>
	<path clip-path="url(#SVGID_5_)" fill="#1A1A1A" d="M619.083,739.53v-61.591c0-1.532-0.233-2.61-0.707-3.247
		c-0.467-0.633-1.395-1.118-2.782-1.443v-1.746h15.55v1.746c-1.384,0.364-2.311,0.854-2.783,1.474
		c-0.468,0.617-0.707,1.685-0.707,3.217v61.591c0,1.527,0.228,2.598,0.685,3.215c0.453,0.621,1.39,1.111,2.806,1.477v1.746h-15.55
		v-1.746c1.418-0.365,2.358-0.855,2.811-1.477C618.861,742.128,619.083,741.058,619.083,739.53"/>
	<path clip-path="url(#SVGID_5_)" fill="#1A1A1A" d="M780.901,671.503v1.522l-51.146,65.849h45.097c1.522,0,2.608-0.236,3.244-0.706
		c0.635-0.475,1.119-1.398,1.444-2.789h1.746v14.079h-1.746c-0.325-1.382-0.81-2.313-1.444-2.78
		c-0.64-0.473-1.722-0.711-3.244-0.711h-59.845v-1.579l51.354-65.794h-44.323c-1.523,0-2.605,0.238-3.239,0.72
		c-0.64,0.485-1.124,1.405-1.451,2.773h-1.746v-14.076h1.746c0.327,1.396,0.812,2.324,1.451,2.793
		c0.634,0.468,1.716,0.699,3.239,0.699H780.901z"/>
	<path clip-path="url(#SVGID_5_)" fill="#1A1A1A" d="M217.703,742.366c-0.62-0.728-1.893-3.183-3.816-7.361l-26.133-56.738
		c-0.657-1.419-0.981-2.327-0.981-2.728c0-0.944,0.887-1.708,2.668-2.29v-1.746h-18.11v1.746c1.783,0.469,2.674,1.179,2.674,2.125
		c0,0.513-0.328,1.474-0.982,2.893l-27.276,58.867c-1.276,2.794-2.302,4.615-3.083,5.451c-0.78,0.838-1.918,1.379-3.408,1.636v1.746
		h16.611v-1.746c-2.156-0.364-3.231-1.09-3.231-2.182c0-0.542,0.31-1.49,0.929-2.838l2.768-5.971l1.508-3.256l5.449-11.992h-0.015
		l16.75-36.798l12.556,27.551l0.08,0.179l4.13,9.068h-0.036l4.492,9.949l4.791,10.51c0.801,1.668,1.198,2.8,1.198,3.374
		c0,1.315-1.054,2.115-3.17,2.405v1.746h17.675v-1.746C219.667,743.715,218.319,743.096,217.703,742.366"/>
	<path clip-path="url(#SVGID_5_)" fill="#1A1A1A" d="M528.183,742.366c-0.622-0.728-1.893-3.183-3.82-7.361l-26.13-56.738
		c-0.656-1.419-0.982-2.327-0.982-2.728c0-0.944,0.887-1.708,2.668-2.29v-1.746H481.81v1.746c1.781,0.469,2.675,1.179,2.675,2.125
		c0,0.513-0.329,1.474-0.983,2.893l-27.277,58.867c-1.273,2.794-2.301,4.615-3.082,5.451c-0.78,0.838-1.922,1.379-3.407,1.636v1.746
		h16.609v-1.746c-2.154-0.364-3.231-1.09-3.231-2.182c0-0.542,0.308-1.49,0.931-2.838l2.765-5.971l1.507-3.256l5.451-11.992h-0.012
		l16.75-36.798l12.552,27.551l0.081,0.179l4.132,9.068h-0.038l4.492,9.949l4.793,10.51c0.799,1.668,1.197,2.8,1.197,3.374
		c0,1.315-1.056,2.115-3.171,2.405v1.746h17.672v-1.746C530.145,743.715,528.797,743.096,528.183,742.366"/>
	<path clip-path="url(#SVGID_5_)" fill="#1A1A1A" d="M936.704,742.366c-0.617-0.728-1.892-3.183-3.818-7.361l-26.129-56.738
		c-0.655-1.419-0.986-2.327-0.986-2.728c0-0.944,0.892-1.708,2.677-2.29v-1.746h-18.115v1.746c1.783,0.469,2.676,1.179,2.676,2.125
		c0,0.513-0.326,1.474-0.98,2.893l-27.281,58.867c-1.271,2.794-2.299,4.615-3.083,5.451c-0.777,0.838-1.918,1.379-3.404,1.636v1.746
		h16.613v-1.746c-2.155-0.364-3.233-1.09-3.233-2.182c0-0.542,0.312-1.49,0.928-2.838l2.768-5.971l1.508-3.256l5.449-11.992h-0.014
		l16.751-36.798l12.554,27.551l0.084,0.179l4.131,9.068h-0.044l4.499,9.949l4.789,10.51c0.799,1.668,1.199,2.8,1.199,3.374
		c0,1.315-1.055,2.115-3.172,2.405v1.746h17.675v-1.746C938.671,743.715,937.324,743.096,936.704,742.366"/>
	<path clip-path="url(#SVGID_5_)" fill="#1A1A1A" d="M317.106,863.143c0.322,0.42,0.934,0.632,1.834,0.632v1.158h-12.755v-1.158
		c0.901,0,1.512-0.212,1.838-0.632c0.318-0.416,0.481-0.978,0.481-1.688v-19.331h-34.21v19.331c0,0.71,0.163,1.271,0.485,1.688
		c0.322,0.42,0.933,0.632,1.834,0.632v1.158h-12.755v-1.158c0.901,0,1.512-0.212,1.838-0.632c0.318-0.416,0.481-0.978,0.481-1.688
		v-43.876c0-0.705-0.163-1.272-0.481-1.692c-0.326-0.416-0.937-0.627-1.838-0.627v-1.158h12.755v1.158
		c-0.901,0-1.512,0.211-1.834,0.627c-0.322,0.42-0.485,0.987-0.485,1.692v18.169h34.21v-18.169c0-0.705-0.163-1.272-0.481-1.692
		c-0.326-0.416-0.937-0.627-1.838-0.627v-1.158h12.755v1.158c-0.9,0-1.512,0.211-1.834,0.627c-0.322,0.42-0.485,0.987-0.485,1.692
		v43.876C316.621,862.165,316.784,862.727,317.106,863.143"/>
	<path clip-path="url(#SVGID_5_)" fill="#1A1A1A" d="M394.802,815.21c3.542,1.13,6.62,2.805,9.229,5.027
		c2.609,2.222,4.639,4.944,6.086,8.165c1.452,3.225,2.177,6.926,2.177,11.112c0,4.191-0.725,7.896-2.177,11.117
		c-1.447,3.22-3.477,5.927-6.086,8.116s-5.687,3.816-9.229,4.88c-3.543,1.064-7.407,1.594-11.598,1.594
		c-4.187,0-8.051-0.529-11.594-1.594c-3.547-1.063-6.62-2.69-9.229-4.88c-2.609-2.189-4.639-4.896-6.091-8.116
		c-1.447-3.221-2.173-6.926-2.173-11.117c0-4.187,0.726-7.888,2.173-11.112c1.452-3.221,3.482-5.943,6.091-8.165
		c2.609-2.223,5.682-3.897,9.229-5.027c3.543-1.125,7.407-1.687,11.594-1.687C387.395,813.523,391.259,814.085,394.802,815.21
		 M367.986,825.251c-3.575,3.438-5.365,8.178-5.365,14.219c0,6.042,1.79,10.779,5.365,14.22c3.575,3.437,8.646,5.156,15.218,5.156
		c6.571,0,11.647-1.72,15.222-5.156c3.575-3.44,5.365-8.178,5.365-14.22c0-6.041-1.79-10.781-5.365-14.219
		c-3.575-3.441-8.651-5.157-15.222-5.157C376.632,820.094,371.561,821.81,367.986,825.251"/>
	<path clip-path="url(#SVGID_5_)" fill="#1A1A1A" d="M460.512,863.774c0.905,0,1.516-0.212,1.839-0.632
		c0.322-0.416,0.481-0.978,0.481-1.688v-40.978h-16.233c-1.227,0-2.096,0.179-2.609,0.534c-0.518,0.354-0.775,1.015-0.775,1.981
		h-1.158v-11.402h1.158c0,1.675,1.125,2.511,3.384,2.511h40.586c2.254,0,3.384-0.836,3.384-2.511h1.157v11.402h-1.157
		c0-0.967-0.261-1.628-0.775-1.981c-0.518-0.355-1.386-0.534-2.609-0.534h-16.233v40.978c0,0.71,0.159,1.271,0.481,1.688
		c0.322,0.42,0.934,0.632,1.839,0.632v1.158h-12.76V863.774z"/>
	<path clip-path="url(#SVGID_5_)" fill="#1A1A1A" d="M527.099,815.887c-0.322-0.416-0.934-0.628-1.839-0.628v-1.157h40.497
		c1.672,0,2.731-0.146,3.188-0.437c0.448-0.289,0.677-0.787,0.677-1.496h1.158v11.016h-1.158c0-0.837-0.261-1.496-0.774-1.981
		c-0.513-0.481-1.517-0.726-3-0.726h-30.146v15.271h19.62c1.158,0,2.104-0.191,2.847-0.579c0.741-0.387,1.116-1.096,1.116-2.128
		h1.157v11.696h-1.157c0-0.97-0.294-1.644-0.873-2.03c-0.578-0.387-1.549-0.583-2.901-0.583h-19.808v16.428h32.274
		c1.353,0,2.355-0.239,3-0.721c0.644-0.485,0.962-1.337,0.962-2.563h1.158v11.5h-1.158c0-1.224-1.125-1.836-3.383-1.836H525.26
		v-1.156c0.905,0,1.517-0.212,1.839-0.632c0.322-0.416,0.481-0.979,0.481-1.688v-43.876
		C527.58,816.874,527.42,816.307,527.099,815.887"/>
	<path clip-path="url(#SVGID_5_)" fill="#1A1A1A" d="M621.414,815.26c-0.9,0-1.512,0.228-1.834,0.677
		c-0.321,0.452-0.48,1.129-0.48,2.03v40.586h32.469c2.255,0,3.38-0.967,3.38-2.898h1.162v11.113h-1.162
		c0-1.224-1.125-1.835-3.38-1.835h-42.91v-1.158c0.901,0,1.514-0.212,1.839-0.632c0.322-0.415,0.481-0.979,0.481-1.688v-43.876
		c0-0.706-0.159-1.271-0.481-1.691c-0.325-0.416-0.938-0.628-1.839-0.628v-1.158h12.756V815.26z"/>
	<path clip-path="url(#SVGID_5_)" fill="#1A1A1A" d="M689.257,815.887c-0.326-0.416-0.938-0.628-1.839-0.628v-1.157h40.493
		c1.676,0,2.734-0.146,3.188-0.437c0.448-0.289,0.677-0.787,0.677-1.496h1.157v11.016h-1.157c0-0.837-0.257-1.496-0.774-1.981
		c-0.515-0.481-1.513-0.726-2.996-0.726h-30.151v15.271h19.621c1.158,0,2.108-0.191,2.851-0.579
		c0.736-0.387,1.111-1.096,1.111-2.128h1.158v11.696h-1.158c0-0.97-0.293-1.644-0.872-2.03s-1.545-0.583-2.897-0.583h-19.813v16.428
		h32.279c1.353,0,2.352-0.239,2.996-0.721c0.644-0.485,0.966-1.337,0.966-2.563h1.158v11.5h-1.158c0-1.224-1.129-1.836-3.383-1.836
		h-43.294v-1.156c0.9,0,1.513-0.212,1.839-0.632c0.318-0.416,0.48-0.979,0.48-1.688v-43.876
		C689.737,816.874,689.575,816.307,689.257,815.887"/>
	<path clip-path="url(#SVGID_5_)" fill="#1A1A1A" d="M774.971,849.666c-0.196,0.447-0.289,0.867-0.289,1.256
		c0,0.9,0.563,1.834,1.688,2.8c1.129,0.966,2.608,1.854,4.447,2.658c1.834,0.807,3.913,1.468,6.233,1.98
		c2.319,0.519,4.672,0.775,7.052,0.775c6.123,0,10.551-0.901,13.29-2.707c2.735-1.802,4.105-4.121,4.105-6.959
		c0-1.354-0.338-2.479-1.016-3.383c-0.673-0.901-1.609-1.595-2.801-2.075c-1.193-0.485-2.576-0.824-4.153-1.015
		c-1.581-0.196-3.273-0.29-5.075-0.29c-2.964,0-6.104-0.017-9.421-0.05c-3.318-0.031-6.363-0.451-9.132-1.255
		c-2.772-0.807-5.059-2.145-6.86-4.012c-1.807-1.867-2.707-4.639-2.707-8.313c0-2.318,0.644-4.427,1.932-6.326
		s3.045-3.53,5.268-4.884c2.222-1.35,4.847-2.413,7.876-3.188c3.028-0.775,6.314-1.158,9.856-1.158c2.769,0,5.169,0.192,7.199,0.579
		c2.031,0.387,3.784,0.807,5.267,1.256c1.48,0.452,2.707,0.868,3.673,1.255c0.967,0.388,1.771,0.579,2.414,0.579
		c0.709,0,1.224-0.126,1.55-0.383c0.317-0.257,0.64-0.546,0.966-0.873l1.158,0.486l-5.316,11.111l-1.06-0.676
		c0.061-0.191,0.094-0.611,0.094-1.256c0-0.453-0.388-0.999-1.158-1.643c-0.775-0.645-1.871-1.272-3.286-1.884
		c-1.418-0.611-3.109-1.129-5.075-1.549c-1.965-0.416-4.104-0.628-6.425-0.628c-5.218,0-9.359,0.84-12.417,2.516
		c-3.062,1.676-4.59,3.864-4.59,6.571c0,1.223,0.338,2.205,1.015,2.947c0.677,0.738,1.606,1.321,2.801,1.737
		c1.19,0.419,2.576,0.692,4.153,0.822c1.578,0.131,3.271,0.192,5.076,0.192c3.029,0,6.185,0.049,9.47,0.146
		c3.285,0.094,6.314,0.596,9.082,1.495c2.772,0.905,5.06,2.354,6.861,4.351c1.806,1.998,2.707,4.929,2.707,8.793
		c0,2.063-0.53,4.044-1.594,5.944c-1.064,1.899-2.658,3.591-4.782,5.074c-2.128,1.48-4.753,2.643-7.876,3.479
		c-3.126,0.839-6.751,1.255-10.872,1.255c-3.481,0-6.494-0.273-9.038-0.819s-4.72-1.194-6.521-1.932
		c-1.803-0.742-3.286-1.419-4.444-2.031c-1.162-0.611-2.095-0.921-2.804-0.921c-0.645,0-1.321,0.387-2.031,1.162l-0.966-0.579
		l5.218-11.113L774.971,849.666z"/>
	<path clip-path="url(#SVGID_5_)" fill="#FFFFFF" d="M614.527,445.457c-1.278-1.473-3.918-6.454-7.909-14.936l-54.109-115.084
		c-1.354-2.88-2.034-4.723-2.034-5.534c0-1.916,1.848-3.465,5.536-4.648v-3.541h-37.5v3.541c3.69,0.96,5.532,2.399,5.532,4.317
		c0,1.031-0.677,2.985-2.038,5.865l-51.449,119.397c-2.631,5.683-4.764,9.371-6.38,11.065c-1.617,1.7-3.973,2.805-7.06,3.321v3.54
		h34.398v-3.54c-4.46-0.735-6.691-2.211-6.691-4.427c0-1.104,0.638-3.022,1.922-5.75l49.772-117.686l25.988,55.88l0.171,0.36
		l8.557,18.397h-0.086l9.297,20.191l9.924,21.308c1.662,3.391,2.487,5.677,2.487,6.857c0,2.659-2.193,4.285-6.57,4.87v3.54h36.601
		v-3.54C618.597,448.19,615.802,446.933,614.527,445.457"/>
</g>
</svg>
