<?xml version="1.0" encoding="utf-8"?>
<!-- Generator: Adobe Illustrator 16.0.3, SVG Export Plug-In . SVG Version: 6.00 Build 0)  -->
<!DOCTYPE svg PUBLIC "-//W3C//DTD SVG 1.1//EN" "http://www.w3.org/Graphics/SVG/1.1/DTD/svg11.dtd">
<svg version="1.1" id="Capa_1" xmlns="http://www.w3.org/2000/svg" xmlns:xlink="http://www.w3.org/1999/xlink" x="0px" y="0px"
	 width="470px" height="468px" viewBox="70.5 161.5 470 468" enable-background="new 70.5 161.5 470 468" xml:space="preserve">
<g id="Layer_1">
	<path fill="#293641" d="M401.799,333.808c-11.748,11.792-23.54,23.583-35.288,35.417c-0.426,0.426-0.81,0.937-1.49,1.703
		c7.705,0,14.898,0,22.093,0c18.475,0,97.651,0,143.284,0V224.749c0-29.372-23.796-53.125-53.125-53.125H134.728
		c-29.372,0-53.125,23.796-53.125,53.125v342.502c0,29.372,23.795,53.125,53.125,53.125h342.502
		c29.372,0,53.125-23.796,53.125-53.125V422.35c-49.209,0.043-139.154,0-163.163,0c-0.596,0-1.234,0-1.83,0
		c-0.086,0.213-0.128,0.426-0.213,0.596c4.853,4.768,9.705,9.493,14.516,14.303c8.556,8.557,17.154,17.07,25.498,25.797
		c3.15,3.32,4.427,7.96,4.001,12.43c-0.085,3.788-1.489,7.364-4.384,10.557c-3.491,3.789-7.066,7.577-10.94,10.982
		c-7.449,6.599-17.112,6.173-24.221-0.937c-11.621-11.578-71.813-72.152-86.499-86.753c-4.427-4.428-6.215-9.578-5.278-15.75
		c0.639-4.086,2.724-7.322,5.576-10.174c12.217-12.217,24.434-24.434,36.651-36.651c16.347-16.346,32.692-32.735,49.039-49.039
		c7.193-7.194,16.984-7.62,24.519-0.937c3.916,3.448,7.535,7.279,11.067,11.11c4.641,5.065,5.492,11.025,3.363,17.453
		C406.95,328.913,404.269,331.297,401.799,333.808z"/>
</g>
</svg>
