<svg xmlns="http://www.w3.org/2000/svg" width="246" height="234" xml:space="preserve"><linearGradient id="a" gradientUnits="userSpaceOnUse" x1="-152.853" y1="140.24" x2="-10.952" y2="140.24" gradientTransform="matrix(.8306 -.8018 -.7953 -.824 300.298 166.939)"><stop offset="0" style="stop-color:#8b5222"/><stop offset=".241" style="stop-color:#a16b33"/><stop offset=".495" style="stop-color:#b37f44"/><stop offset=".749" style="stop-color:#be8d4f"/><stop offset="1" style="stop-color:#c29153"/></linearGradient><path fill="url(#a)" d="M236.013 118.633 118.23 232.389 5.46 115.457 123.244 1.703z"/><path fill="#FFF" d="M68.676 148.294c1.904-.28 3.398-.961 4.346-2.039.948-1.077 2.294-3.367 3.907-6.865l31.694-73.655c.808-1.746 1.208-2.957 1.204-3.625-.008-1.205-1.103-2.004-3.425-2.656l-.014-2.145 23.443-.15.014 2.145c-2.313.682-3.396 1.761-3.39 2.834.004.536.417 1.605 1.25 3.344l34.251 70.554c2.491 5.209 4.145 8.283 4.965 9.214.826.936 2.603 1.725 5.193 2.243l.014 2.146-22.896.147-.014-2.146c2.723-.418 4.081-1.362 4.07-2.972-.005-.673-.559-2.141-1.524-4.145l-6.354-13.098L139.469 115l-5.391-11.226-.14-.265L117.5 69.165l-30.746 72.579c-.804 1.748-1.207 2.823-1.203 3.492.008 1.339 1.377 2.267 4.241 2.654l.014 2.145-21.533.138-.012-1.875.415-.004z"/></svg>