<?xml version="1.0" encoding="utf-8"?>
<!-- Generator: Adobe Illustrator 16.0.3, SVG Export Plug-In . SVG Version: 6.00 Build 0)  -->
<!DOCTYPE svg PUBLIC "-//W3C//DTD SVG 1.1//EN" "http://www.w3.org/Graphics/SVG/1.1/DTD/svg11.dtd">
<svg version="1.1" id="Capa_1" xmlns="http://www.w3.org/2000/svg" xmlns:xlink="http://www.w3.org/1999/xlink" x="0px" y="0px"
	 width="432px" height="143px" viewBox="0 0 432 143" enable-background="new 0 0 432 143" xml:space="preserve">
<g>
	<g id="XMLID_00000158725751610952093760000002883596938841751197_">
		<path id="XMLID_00000056417167630196370930000006713223082976944780_" d="M214.751,71.033v8.634c0,0.485,0.077,0.815,0.232,1.011
			c0.155,0.194,0.447,0.37,0.896,0.486v0.563H210.9v-0.563c0.447-0.116,0.739-0.271,0.896-0.467c0.156-0.194,0.232-0.545,0.232-1.03
			v-19.64c0-0.485-0.076-0.836-0.232-1.03c-0.154-0.194-0.446-0.35-0.896-0.467v-0.563h13.027c1.789,0,3.188,0.098,4.239,0.291
			c1.029,0.194,1.943,0.525,2.702,0.992c0.798,0.486,1.42,1.147,1.905,2.003c0.563,0.973,0.836,2.041,0.836,3.268
			c0,1.809-0.604,3.285-1.81,4.434c-1.204,1.146-2.857,1.788-4.958,1.964l6.048,9.394c0.368,0.582,0.875,0.875,1.574,0.875v0.563
			h-5.482v-0.563c0.563-0.1,0.854-0.254,0.854-0.486c0-0.116-0.193-0.486-0.604-1.128l-5.405-8.518L214.751,71.033L214.751,71.033z
			 M214.751,68.759h9.625c1.304,0,2.294-0.059,2.976-0.155c0.661-0.116,1.266-0.312,1.771-0.604c1.188-0.7,1.789-1.866,1.789-3.5
			c0-1.652-0.622-2.818-1.848-3.52c-0.545-0.292-1.146-0.506-1.828-0.604c-0.66-0.098-1.711-0.155-3.11-0.155h-9.372L214.751,68.759
			L214.751,68.759z"/>
		<path id="XMLID_00000040570124573661316420000013988313282243324607_" d="M312.012,79.646v-19.64c0-0.484-0.077-0.836-0.232-1.029
			c-0.154-0.194-0.447-0.351-0.896-0.468v-0.563h4.959v0.563c-0.446,0.117-0.739,0.272-0.896,0.468
			c-0.155,0.194-0.232,0.545-0.232,1.029v19.642c0,0.484,0.078,0.836,0.214,1.028c0.137,0.194,0.447,0.353,0.896,0.468v0.563h-4.958
			v-0.563c0.446-0.115,0.759-0.271,0.895-0.468C311.954,80.482,312.012,80.134,312.012,79.646"/>
		<path id="XMLID_00000127045338531049925860000008556255475648343720_" d="M363.638,57.947v0.486l-16.313,21h14.391
			c0.485,0,0.836-0.078,1.029-0.233s0.352-0.447,0.468-0.896h0.563v4.491h-0.563c-0.099-0.446-0.253-0.737-0.468-0.896
			c-0.193-0.155-0.544-0.232-1.029-0.232h-19.096v-0.506l16.393-20.979h-14.136c-0.486,0-0.838,0.076-1.031,0.232
			c-0.193,0.155-0.351,0.447-0.467,0.875h-0.563v-4.492h0.563c0.098,0.447,0.253,0.739,0.467,0.896
			c0.193,0.155,0.545,0.214,1.031,0.214h18.764L363.638,57.947L363.638,57.947z"/>
		<path id="XMLID_00000022554673167536081620000006033357185387359654_" d="M183.971,80.563c-0.194-0.233-0.604-1.014-1.226-2.354
			l-8.343-18.103c-0.214-0.447-0.313-0.739-0.313-0.875c0-0.292,0.292-0.545,0.854-0.739v-0.563h-5.773v0.563
			c0.563,0.156,0.854,0.37,0.854,0.681c0,0.156-0.098,0.468-0.313,0.914l-8.711,18.783c-0.407,0.895-0.738,1.479-0.991,1.73
			c-0.254,0.271-0.604,0.446-1.09,0.523v0.564h5.31v-0.564c-0.682-0.116-1.029-0.35-1.029-0.7c0-0.175,0.097-0.467,0.291-0.913
			l0.875-1.904l0.485-1.03l1.729-3.831l0,0L171.931,61l4.006,8.789l0.021,0.059l1.321,2.896h-0.021l1.438,3.17l1.536,3.345
			c0.253,0.524,0.39,0.896,0.39,1.069c0,0.428-0.33,0.681-1.012,0.758v0.564h5.64v-0.564
			C184.592,80.989,184.164,80.795,183.971,80.563"/>
		<path id="XMLID_00000109727398422833996640000014814162452053831565_" d="M283.02,80.563c-0.192-0.233-0.603-1.014-1.225-2.354
			l-8.342-18.103c-0.215-0.447-0.313-0.739-0.313-0.875c0-0.292,0.292-0.545,0.856-0.739v-0.563h-5.775v0.563
			c0.563,0.156,0.855,0.37,0.855,0.681c0,0.156-0.1,0.468-0.313,0.914l-8.711,18.783c-0.408,0.895-0.739,1.479-0.991,1.73
			c-0.253,0.271-0.622,0.446-1.089,0.523v0.564h5.309v-0.564c-0.682-0.116-1.029-0.35-1.029-0.7c0-0.175,0.098-0.467,0.292-0.913
			l0.875-1.904l0.485-1.03l1.729-3.831l0,0L270.981,61l4.006,8.789l0.021,0.059l1.322,2.896h-0.021l1.438,3.17l1.535,3.345
			c0.254,0.524,0.391,0.896,0.391,1.069c0,0.428-0.331,0.681-1.012,0.758v0.564h5.64v-0.564
			C283.643,80.989,283.216,80.795,283.02,80.563"/>
		<path id="XMLID_00000087407673329525317810000005170531700011817361_" d="M413.359,80.563c-0.194-0.233-0.604-1.014-1.226-2.354
			l-8.343-18.103c-0.214-0.447-0.313-0.739-0.313-0.875c0-0.292,0.292-0.545,0.854-0.739v-0.563h-5.773v0.563
			c0.563,0.156,0.854,0.37,0.854,0.681c0,0.156-0.098,0.468-0.313,0.914l-8.711,18.783c-0.407,0.895-0.738,1.479-0.991,1.73
			c-0.252,0.271-0.604,0.446-1.09,0.523v0.564h5.31v-0.564c-0.681-0.116-1.029-0.35-1.029-0.7c0-0.175,0.098-0.467,0.292-0.913
			l0.875-1.904l0.484-1.03l1.729-3.831l0,0L401.319,61l4.006,8.789l0.021,0.059l1.322,2.896h-0.021l1.438,3.17l1.535,3.345
			c0.253,0.524,0.39,0.896,0.39,1.069c0,0.428-0.33,0.681-1.011,0.758v0.564h5.639v-0.564
			C413.982,80.989,413.553,80.795,413.359,80.563"/>
	</g>
	<g>
		<path d="M240.029,106.831c0.06,0.078,0.193,0.136,0.391,0.136v0.233h-2.664v-0.233c0.194,0,0.312-0.037,0.389-0.136
			c0.061-0.078,0.1-0.192,0.1-0.351v-4.024h-7.117v4.024c0,0.154,0.039,0.271,0.099,0.351c0.059,0.078,0.193,0.136,0.389,0.136
			v0.233h-2.663v-0.233c0.193,0,0.312-0.037,0.389-0.136c0.06-0.078,0.099-0.192,0.099-0.351V97.34c0-0.154-0.039-0.271-0.099-0.35
			c-0.058-0.078-0.193-0.137-0.389-0.137v-0.232h2.663v0.232c-0.193,0-0.313,0.039-0.389,0.137c-0.06,0.078-0.099,0.214-0.099,0.35
			v3.792h7.117V97.34c0-0.154-0.039-0.271-0.1-0.35c-0.059-0.079-0.192-0.137-0.389-0.137v-0.232h2.664v0.232
			c-0.195,0-0.313,0.039-0.391,0.137c-0.059,0.078-0.098,0.214-0.098,0.35v9.141C239.931,106.639,239.951,106.753,240.029,106.831z"
			/>
		<path d="M256.207,96.855c0.737,0.231,1.38,0.584,1.925,1.051c0.544,0.467,0.972,1.029,1.264,1.691
			c0.313,0.68,0.447,1.438,0.447,2.313s-0.155,1.652-0.447,2.314c-0.312,0.659-0.72,1.225-1.264,1.689
			c-0.545,0.447-1.188,0.798-1.925,1.012c-0.739,0.215-1.536,0.33-2.411,0.33s-1.673-0.115-2.411-0.33
			c-0.739-0.214-1.381-0.563-1.926-1.012c-0.544-0.447-0.973-1.012-1.265-1.689c-0.312-0.662-0.446-1.439-0.446-2.314
			s0.154-1.633,0.446-2.313c0.313-0.662,0.721-1.244,1.265-1.691c0.545-0.447,1.187-0.817,1.926-1.051
			c0.738-0.232,1.536-0.352,2.411-0.352S255.468,96.623,256.207,96.855z M250.626,98.938c-0.739,0.72-1.108,1.711-1.108,2.955
			c0,1.265,0.369,2.234,1.108,2.955s1.809,1.068,3.17,1.068c1.359,0,2.431-0.35,3.169-1.068c0.739-0.721,1.107-1.712,1.107-2.955
			c0-1.266-0.368-2.235-1.107-2.955c-0.738-0.722-1.81-1.069-3.169-1.069C252.415,97.867,251.365,98.217,250.626,98.938z"/>
		<path d="M269.895,106.967c0.194,0,0.313-0.037,0.391-0.136c0.059-0.078,0.098-0.192,0.098-0.351v-8.535h-3.384
			c-0.252,0-0.429,0.037-0.544,0.115c-0.117,0.078-0.155,0.215-0.155,0.407h-0.232v-2.37h0.232c0,0.35,0.233,0.523,0.699,0.523
			h8.459c0.467,0,0.7-0.176,0.7-0.523h0.231v2.37h-0.231c0-0.192-0.061-0.329-0.156-0.407c-0.116-0.078-0.291-0.115-0.544-0.115
			h-3.384v8.535c0,0.154,0.038,0.271,0.098,0.351c0.059,0.079,0.194,0.136,0.389,0.136v0.233h-2.664L269.895,106.967
			L269.895,106.967z"/>
		<path d="M283.76,96.992c-0.059-0.078-0.193-0.137-0.389-0.137v-0.232h8.438c0.353,0,0.564-0.039,0.661-0.098
			c0.099-0.061,0.138-0.155,0.138-0.313h0.232v2.295h-0.232c0-0.175-0.06-0.312-0.155-0.407c-0.116-0.099-0.313-0.154-0.622-0.154
			h-6.28v3.188h4.083c0.233,0,0.447-0.038,0.584-0.115c0.136-0.078,0.233-0.232,0.233-0.447h0.23v2.432h-0.23
			c0-0.193-0.061-0.352-0.177-0.429c-0.115-0.077-0.33-0.116-0.604-0.116h-4.122v3.422h6.729c0.271,0,0.485-0.059,0.622-0.154
			c0.138-0.098,0.193-0.271,0.193-0.523h0.233v2.392h-0.233c0-0.253-0.231-0.39-0.699-0.39h-9.021v-0.233
			c0.193,0,0.311-0.036,0.389-0.136c0.06-0.078,0.099-0.193,0.099-0.35v-9.142C283.858,97.188,283.838,97.07,283.76,96.992z"/>
		<path d="M303.4,96.855c-0.194,0-0.313,0.039-0.391,0.137c-0.058,0.097-0.097,0.232-0.097,0.428v8.458h6.767
			c0.468,0,0.7-0.192,0.7-0.603h0.232v2.313h-0.231c0-0.253-0.233-0.39-0.7-0.39h-8.943v-0.233c0.193,0,0.312-0.038,0.39-0.136
			c0.059-0.078,0.097-0.194,0.097-0.351V97.34c0-0.154-0.038-0.271-0.097-0.35c-0.06-0.079-0.194-0.137-0.39-0.137v-0.232h2.664
			L303.4,96.855L303.4,96.855z"/>
		<path d="M317.534,96.992c-0.06-0.078-0.193-0.137-0.39-0.137v-0.232h8.438c0.352,0,0.564-0.039,0.661-0.098
			c0.099-0.061,0.138-0.155,0.138-0.313h0.232v2.295h-0.232c0-0.175-0.06-0.312-0.156-0.407c-0.115-0.099-0.312-0.154-0.622-0.154
			h-6.279v3.188h4.083c0.232,0,0.446-0.038,0.604-0.115c0.154-0.078,0.232-0.232,0.232-0.447h0.231v2.432h-0.231
			c0-0.193-0.06-0.352-0.176-0.429s-0.33-0.116-0.604-0.116h-4.122v3.422h6.729c0.271,0,0.485-0.059,0.622-0.154
			c0.137-0.098,0.193-0.271,0.193-0.523h0.232v2.392h-0.232c0-0.253-0.231-0.39-0.699-0.39h-9.021v-0.233
			c0.194,0,0.312-0.036,0.39-0.136c0.06-0.078,0.099-0.193,0.099-0.35v-9.142C317.633,97.188,317.614,97.07,317.534,96.992z"/>
		<path d="M335.386,104.031c-0.039,0.097-0.06,0.175-0.06,0.253c0,0.194,0.116,0.389,0.351,0.583
			c0.233,0.193,0.545,0.389,0.935,0.545c0.39,0.175,0.815,0.313,1.303,0.408c0.486,0.115,0.974,0.154,1.479,0.154
			c1.283,0,2.197-0.193,2.762-0.563c0.563-0.37,0.854-0.855,0.854-1.459c0-0.271-0.078-0.523-0.214-0.7
			c-0.137-0.192-0.331-0.33-0.583-0.428c-0.253-0.097-0.545-0.175-0.854-0.214c-0.331-0.038-0.682-0.06-1.052-0.06
			c-0.622,0-1.264,0-1.964-0.02c-0.7-0.021-1.322-0.099-1.904-0.253c-0.584-0.176-1.051-0.447-1.421-0.836
			c-0.368-0.392-0.563-0.974-0.563-1.731c0-0.483,0.137-0.913,0.408-1.321c0.271-0.39,0.643-0.738,1.089-1.012
			c0.468-0.271,1.013-0.506,1.635-0.66s1.321-0.232,2.062-0.232c0.584,0,1.068,0.039,1.497,0.117
			c0.429,0.076,0.798,0.174,1.09,0.252c0.312,0.098,0.563,0.176,0.758,0.252c0.193,0.078,0.369,0.117,0.507,0.117
			c0.154,0,0.253-0.021,0.329-0.078c0.06-0.06,0.138-0.115,0.193-0.174l0.233,0.098l-1.108,2.313l-0.214-0.136
			c0.021-0.039,0.021-0.138,0.021-0.253c0-0.098-0.076-0.215-0.232-0.352c-0.154-0.137-0.389-0.271-0.682-0.39
			c-0.29-0.136-0.643-0.231-1.05-0.33c-0.407-0.077-0.854-0.137-1.343-0.137c-1.089,0-1.943,0.175-2.586,0.524
			c-0.642,0.351-0.951,0.797-0.951,1.36c0,0.253,0.076,0.468,0.214,0.622c0.137,0.155,0.33,0.271,0.583,0.369
			c0.253,0.078,0.544,0.137,0.854,0.175c0.331,0.021,0.682,0.039,1.05,0.039c0.622,0,1.283,0.021,1.965,0.039
			c0.682,0.021,1.321,0.116,1.887,0.313c0.583,0.192,1.051,0.483,1.42,0.912c0.369,0.408,0.563,1.03,0.563,1.828
			c0,0.428-0.116,0.836-0.331,1.243c-0.214,0.392-0.544,0.739-0.99,1.052c-0.446,0.312-0.991,0.545-1.635,0.719
			c-0.642,0.177-1.398,0.254-2.256,0.254c-0.719,0-1.359-0.06-1.886-0.176c-0.527-0.115-0.991-0.252-1.361-0.408
			c-0.368-0.154-0.681-0.291-0.934-0.428c-0.233-0.138-0.429-0.193-0.583-0.193c-0.137,0-0.272,0.076-0.429,0.232l-0.193-0.117
			l1.089-2.313L335.386,104.031z"/>
	</g>
</g>
<g>
	
		<linearGradient id="SVGID_1_" gradientUnits="userSpaceOnUse" x1="1150.3391" y1="-2584.5522" x2="1138.6385" y2="-1631.0043" gradientTransform="matrix(0.1944 0 0 -0.1944 -156.2794 -338.4694)">
		<stop  offset="0" style="stop-color:#84542D"/>
		<stop  offset="0.0611" style="stop-color:#8C5C33"/>
		<stop  offset="0.297" style="stop-color:#A77945"/>
		<stop  offset="0.5332" style="stop-color:#BB8D52"/>
		<stop  offset="0.7681" style="stop-color:#C6995A"/>
		<stop  offset="1" style="stop-color:#CA9D5D"/>
	</linearGradient>
	<path fill="url(#SVGID_1_)" d="M66.229,7.695L0,72.913L66.229,135l66.229-62.087L66.229,7.695z M49.175,90.666v1.245H37.08v-1.245
		c1.089-0.175,1.904-0.563,2.487-1.166c0.563-0.604,1.322-1.887,2.236-3.891l18.083-41.98c0.486-1.012,0.72-1.691,0.72-2.061
		c0-0.682-0.642-1.187-1.942-1.518v-1.245h13.184v1.245c-1.303,0.408-1.944,0.953-1.944,1.633c0,0.292,0.233,0.934,0.722,1.944
		l19.017,40.464c1.399,2.976,2.333,4.726,2.78,5.25c0.446,0.525,1.438,0.953,2.937,1.322v1.245H82.485v-1.245
		c1.536-0.214,2.314-0.777,2.314-1.711c0-0.408-0.292-1.226-0.875-2.411l-3.48-7.486l-3.267-7.098h0.038L74.2,65.482l-0.06-0.136
		l-9.139-19.64l-17.5,41.379c-0.447,0.952-0.683,1.633-0.683,2.021C46.823,89.889,47.6,90.413,49.175,90.666z"/>
	<path fill="#FFFFFF" d="M92.42,89.344c-0.447-0.523-1.381-2.273-2.78-5.25L70.623,43.63c-0.469-1.011-0.722-1.653-0.722-1.944
		c0-0.681,0.644-1.225,1.944-1.633v-1.245H58.663v1.245c1.303,0.331,1.942,0.836,1.942,1.518c0,0.369-0.231,1.049-0.72,2.061
		L41.803,85.611c-0.934,2.005-1.672,3.287-2.236,3.892c-0.563,0.603-1.398,0.991-2.487,1.166v1.245h12.095v-1.245
		c-1.575-0.253-2.354-0.776-2.354-1.558c0-0.389,0.233-1.067,0.683-2.021l17.5-41.379l9.14,19.64l0.059,0.137l3.016,6.475h-0.039
		l3.267,7.099l3.48,7.485c0.583,1.187,0.875,2.003,0.875,2.411c0,0.934-0.778,1.497-2.314,1.711v1.245h12.873V90.67
		C93.86,90.316,92.867,89.869,92.42,89.344z"/>
</g>
</svg>
