<?xml version="1.0" encoding="utf-8"?>
<!-- Generator: Adobe Illustrator 28.0.0, SVG Export Plug-In . SVG Version: 6.00 Build 0)  -->
<svg version="1.1" xmlns="http://www.w3.org/2000/svg" xmlns:xlink="http://www.w3.org/1999/xlink" x="0px" y="0px"
	 viewBox="0 0 541.44 218.36" style="enable-background:new 0 0 541.44 218.36;" xml:space="preserve">
<style type="text/css">
	.st0{fill:#FFFFFF;}
	.st1{opacity:0.5;fill:none;stroke:#000000;stroke-width:0.5;stroke-miterlimit:10;}
	.st2{opacity:0.15;}
	.st3{fill:url(#SVGID_1_);}
	.st4{fill:#293641;}
	.st5{fill:#DC994A;}
	.st6{fill:url(#SVGID_00000143606408659839562390000017731789548793563070_);}
	.st7{fill:url(#SVGID_00000038378727287838936000000014201133750604698018_);}
	.st8{fill:url(#SVGID_00000162312882715666335090000012978808371385802683_);}
	.st9{fill:url(#SVGID_00000121997279591881195770000007593846871882445730_);}
	.st10{fill:url(#SVGID_00000141456899111316785160000004131731775458001855_);}
	.st11{fill:#C29763;}
	.st12{fill:#8E8E8E;}
	.st13{display:none;}
</style>
<g id="Layer_1">
	<g>
		<path class="st4" d="M234.15,144.8h-8.18v16.09H215.2v-53.64h20c11.68,0,18.74,7.59,18.74,18.54v0.15
			C253.94,138.36,245.13,144.8,234.15,144.8z M243.03,126.02c0-5.29-3.36-8.12-8.74-8.12h-8.32v16.4h8.53
			c5.38,0,8.53-3.52,8.53-8.12V126.02z"/>
		<path class="st4" d="M263.3,160.89v-53.64h10.77v42.91h24.4v10.73H263.3z"/>
		<path class="st4" d="M344.4,160.89l-4.47-12.03h-20.69l-4.47,12.03h-10.98l20.98-54.02h9.93l20.98,54.02H344.4z M329.58,121.04
			l-6.5,17.4h13L329.58,121.04z"/>
		<path class="st4" d="M380.48,118.13v42.76h-10.77v-42.76h-14.89v-10.88h40.55v10.88H380.48z"/>
		<path class="st5" d="M435.15,160.89l-4.47-12.03h-20.69l-4.47,12.03h-10.98l20.97-54.02h9.93l20.97,54.02H435.15z M420.33,121.04
			l-6.5,17.4h13L420.33,121.04z"/>
		<path class="st5" d="M490.38,160.89l-4.47-12.03h-20.7l-4.47,12.03h-10.98l20.97-54.02h9.93l20.97,54.02H490.38z M475.56,121.04
			l-6.5,17.4h13L475.56,121.04z"/>
	</g>
	<g>
		<path class="st4" d="M96.01,182.25c-0.21,0.46-0.5,0.84-0.87,1.15s-0.79,0.54-1.27,0.69c-0.49,0.15-1,0.23-1.54,0.23h-2.47v3.94
			h-1.15v-11.17h3.81c0.57,0,1.09,0.08,1.56,0.25s0.87,0.4,1.21,0.7c0.33,0.3,0.59,0.67,0.77,1.12c0.18,0.44,0.27,0.94,0.27,1.49
			C96.33,181.26,96.22,181.79,96.01,182.25z M94.43,178.87c-0.5-0.41-1.17-0.61-1.99-0.61h-2.58v4.91h2.52
			c0.42,0,0.8-0.06,1.15-0.17c0.35-0.12,0.64-0.29,0.89-0.5s0.44-0.48,0.57-0.78c0.13-0.3,0.2-0.64,0.2-1.01
			C95.18,179.89,94.93,179.28,94.43,178.87z"/>
		<path class="st4" d="M101.63,177.09h1.15v10h5.73v1.16h-6.88V177.09z"/>
		<path class="st4" d="M123.33,188.26h-1.24l-1.19-2.95h-5.55l-1.21,2.95h-1.18l4.64-11.25h1.08L123.33,188.26z M118.13,178.5
			l-2.33,5.7h4.64L118.13,178.5z"/>
		<path class="st4" d="M131.07,188.26h-1.15v-10h-3.42v-1.16h7.99v1.16h-3.42V188.26z"/>
		<path class="st4" d="M148.04,188.26h-1.24l-1.19-2.95h-5.55l-1.21,2.95h-1.18l4.64-11.25h1.08L148.04,188.26z M142.85,178.5
			l-2.33,5.7h4.64L142.85,178.5z"/>
		<path class="st4" d="M160.57,178.26h-6.17v3.99h5.52v1.15h-5.52v4.87h-1.15v-11.17h7.32V178.26z"/>
		<path class="st4" d="M175.35,184.87c-0.25,0.7-0.61,1.31-1.06,1.84c-0.46,0.53-1,0.95-1.65,1.27c-0.64,0.31-1.35,0.47-2.12,0.47
			s-1.48-0.15-2.12-0.46c-0.64-0.31-1.18-0.73-1.64-1.25s-0.81-1.14-1.06-1.83c-0.25-0.7-0.37-1.43-0.37-2.21s0.13-1.51,0.38-2.21
			c0.25-0.7,0.61-1.31,1.06-1.84c0.46-0.53,1-0.95,1.64-1.27c0.64-0.31,1.35-0.47,2.12-0.47s1.48,0.15,2.12,0.46
			c0.64,0.31,1.18,0.73,1.64,1.25s0.81,1.14,1.06,1.83c0.25,0.7,0.37,1.43,0.37,2.21C175.73,183.44,175.6,184.17,175.35,184.87z
			 M174.23,180.89c-0.2-0.56-0.48-1.05-0.84-1.47c-0.36-0.42-0.78-0.75-1.27-0.99c-0.49-0.25-1.03-0.37-1.61-0.37
			c-0.58,0-1.12,0.12-1.61,0.36c-0.49,0.24-0.91,0.57-1.26,0.98c-0.35,0.42-0.62,0.9-0.82,1.46s-0.3,1.16-0.3,1.79
			c0,0.64,0.1,1.24,0.3,1.8c0.2,0.56,0.48,1.05,0.84,1.47s0.78,0.74,1.27,0.99c0.49,0.25,1.03,0.37,1.61,0.37s1.12-0.12,1.61-0.36
			c0.49-0.24,0.91-0.57,1.26-0.98c0.35-0.41,0.62-0.9,0.82-1.46s0.3-1.16,0.3-1.79C174.53,182.05,174.43,181.45,174.23,180.89z"/>
		<path class="st4" d="M188.37,188.26l-2.95-4.34h-2.91v4.34h-1.15v-11.17h4.38c0.56,0,1.07,0.08,1.52,0.24s0.84,0.39,1.16,0.68
			c0.32,0.29,0.57,0.64,0.74,1.05c0.17,0.41,0.26,0.86,0.26,1.36c0,0.47-0.07,0.89-0.2,1.25c-0.14,0.37-0.33,0.69-0.57,0.96
			c-0.25,0.27-0.54,0.5-0.88,0.68c-0.34,0.18-0.71,0.31-1.11,0.38l3.13,4.56H188.37z M187.59,178.84c-0.46-0.39-1.1-0.58-1.93-0.58
			h-3.15v4.55h3.14c0.38,0,0.73-0.05,1.05-0.16c0.32-0.11,0.6-0.26,0.83-0.46c0.23-0.2,0.42-0.44,0.55-0.73
			c0.13-0.29,0.2-0.61,0.2-0.98C188.27,179.78,188.04,179.23,187.59,178.84z"/>
		<path class="st4" d="M199.97,185.2h-0.06l-3.71-5.97v9.03h-1.12v-11.17h1.16l3.71,6.09l3.71-6.09h1.16v11.17h-1.15v-9.04
			L199.97,185.2z"/>
		<path class="st4" d="M220.41,188.26h-1.24l-1.19-2.95h-5.55l-1.21,2.95h-1.18l4.64-11.25h1.08L220.41,188.26z M215.21,178.5
			l-2.33,5.7h4.64L215.21,178.5z"/>
		<path class="st4" d="M241.75,184.87c-0.26,0.69-0.63,1.28-1.11,1.78c-0.48,0.5-1.05,0.89-1.72,1.18s-1.4,0.43-2.19,0.43h-3.54
			v-11.17h3.54c0.8,0,1.53,0.14,2.19,0.42c0.66,0.28,1.24,0.67,1.72,1.17c0.48,0.5,0.85,1.09,1.11,1.77
			c0.26,0.68,0.39,1.42,0.39,2.2C242.14,183.45,242.01,184.18,241.75,184.87z M240.65,180.95c-0.2-0.54-0.48-1.01-0.84-1.41
			c-0.36-0.4-0.81-0.71-1.33-0.94c-0.52-0.23-1.11-0.34-1.75-0.34h-2.39v8.84h2.39c0.64,0,1.22-0.11,1.75-0.33
			c0.52-0.22,0.97-0.54,1.33-0.93c0.36-0.4,0.65-0.86,0.84-1.4c0.2-0.53,0.3-1.11,0.3-1.74
			C240.94,182.08,240.84,181.5,240.65,180.95z"/>
		<path class="st4" d="M255.14,178.24h-6.21v3.81h5.56v1.15h-5.56v3.91h6.29v1.15h-7.44v-11.17h7.36V178.24z"/>
		<path class="st4" d="M277.78,188.26h-1.24l-1.19-2.95h-5.55l-1.21,2.95h-1.18l4.64-11.25h1.08L277.78,188.26z M272.59,178.5
			l-2.33,5.7h4.64L272.59,178.5z"/>
		<path class="st4" d="M290.3,182.25c-0.21,0.46-0.5,0.84-0.87,1.15s-0.79,0.54-1.27,0.69c-0.49,0.15-1,0.23-1.54,0.23h-2.47v3.94
			h-1.15v-11.17h3.81c0.57,0,1.09,0.08,1.56,0.25s0.87,0.4,1.21,0.7c0.33,0.3,0.59,0.67,0.77,1.12c0.18,0.44,0.27,0.94,0.27,1.49
			C290.62,181.26,290.51,181.79,290.3,182.25z M288.72,178.87c-0.5-0.41-1.17-0.61-1.99-0.61h-2.58v4.91h2.52
			c0.42,0,0.8-0.06,1.15-0.17c0.35-0.12,0.64-0.29,0.89-0.5s0.44-0.48,0.57-0.78c0.13-0.3,0.2-0.64,0.2-1.01
			C289.47,179.89,289.22,179.28,288.72,178.87z"/>
		<path class="st4" d="M295.92,177.09h1.15v10h5.73v1.16h-6.88V177.09z"/>
		<path class="st4" d="M309.38,177.09v11.17h-1.15v-11.17H309.38z"/>
		<path class="st4" d="M323.48,187.3c-0.29,0.24-0.59,0.44-0.92,0.61c-0.33,0.17-0.68,0.3-1.06,0.4s-0.8,0.14-1.27,0.14
			c-0.74,0-1.42-0.15-2.04-0.45c-0.62-0.3-1.16-0.71-1.62-1.22c-0.46-0.52-0.81-1.12-1.07-1.83c-0.26-0.7-0.39-1.46-0.39-2.27
			c0-0.8,0.13-1.55,0.39-2.25c0.26-0.7,0.61-1.32,1.07-1.84c0.46-0.53,1-0.94,1.63-1.24c0.63-0.3,1.32-0.45,2.07-0.45
			c0.47,0,0.89,0.04,1.26,0.13c0.37,0.09,0.72,0.21,1.04,0.36c0.32,0.15,0.62,0.34,0.89,0.56c0.27,0.22,0.53,0.46,0.79,0.73
			l-0.79,0.92c-0.44-0.45-0.9-0.81-1.4-1.1c-0.5-0.29-1.1-0.43-1.8-0.43c-0.56,0-1.08,0.12-1.56,0.35c-0.48,0.23-0.9,0.56-1.25,0.97
			s-0.63,0.9-0.83,1.46c-0.2,0.56-0.3,1.16-0.3,1.81c0,0.65,0.1,1.26,0.3,1.82s0.48,1.05,0.83,1.47c0.35,0.42,0.77,0.74,1.25,0.98
			c0.48,0.24,1,0.36,1.56,0.36c0.7,0,1.3-0.14,1.8-0.42c0.5-0.28,1-0.68,1.48-1.19l0.76,0.81
			C324.04,186.79,323.76,187.06,323.48,187.3z"/>
		<path class="st4" d="M339,188.26h-1.24l-1.19-2.95h-5.55l-1.21,2.95h-1.18l4.64-11.25h1.08L339,188.26z M333.8,178.5l-2.33,5.7
			h4.64L333.8,178.5z"/>
		<path class="st4" d="M351.52,187.3c-0.29,0.24-0.59,0.44-0.92,0.61c-0.33,0.17-0.68,0.3-1.06,0.4s-0.8,0.14-1.27,0.14
			c-0.74,0-1.42-0.15-2.04-0.45c-0.62-0.3-1.16-0.71-1.62-1.22c-0.46-0.52-0.81-1.12-1.07-1.83c-0.26-0.7-0.39-1.46-0.39-2.27
			c0-0.8,0.13-1.55,0.39-2.25c0.26-0.7,0.61-1.32,1.07-1.84c0.46-0.53,1-0.94,1.63-1.24c0.63-0.3,1.32-0.45,2.07-0.45
			c0.47,0,0.89,0.04,1.26,0.13c0.37,0.09,0.72,0.21,1.04,0.36c0.32,0.15,0.62,0.34,0.89,0.56c0.27,0.22,0.53,0.46,0.79,0.73
			l-0.79,0.92c-0.44-0.45-0.9-0.81-1.4-1.1c-0.5-0.29-1.1-0.43-1.8-0.43c-0.56,0-1.08,0.12-1.56,0.35c-0.48,0.23-0.9,0.56-1.25,0.97
			s-0.63,0.9-0.83,1.46c-0.2,0.56-0.3,1.16-0.3,1.81c0,0.65,0.1,1.26,0.3,1.82s0.48,1.05,0.83,1.47c0.35,0.42,0.77,0.74,1.25,0.98
			c0.48,0.24,1,0.36,1.56,0.36c0.7,0,1.3-0.14,1.8-0.42c0.5-0.28,1-0.68,1.48-1.19l0.76,0.81
			C352.08,186.79,351.81,187.06,351.52,187.3z"/>
		<path class="st4" d="M358.81,177.09v11.17h-1.15v-11.17H358.81z"/>
		<path class="st4" d="M374.55,184.87c-0.25,0.7-0.61,1.31-1.06,1.84c-0.46,0.53-1,0.95-1.64,1.27s-1.35,0.47-2.12,0.47
			c-0.78,0-1.48-0.15-2.12-0.46c-0.64-0.31-1.18-0.73-1.64-1.25s-0.81-1.14-1.06-1.83c-0.25-0.7-0.37-1.43-0.37-2.21
			s0.13-1.51,0.38-2.21c0.25-0.7,0.61-1.31,1.06-1.84c0.46-0.53,1-0.95,1.64-1.27c0.64-0.31,1.35-0.47,2.12-0.47
			c0.78,0,1.48,0.15,2.12,0.46c0.63,0.31,1.18,0.73,1.64,1.25c0.46,0.53,0.81,1.14,1.05,1.83s0.37,1.43,0.37,2.21
			C374.93,183.44,374.81,184.17,374.55,184.87z M373.44,180.89c-0.2-0.56-0.48-1.05-0.84-1.47c-0.36-0.42-0.78-0.75-1.27-0.99
			c-0.49-0.25-1.03-0.37-1.61-0.37c-0.58,0-1.12,0.12-1.61,0.36c-0.49,0.24-0.91,0.57-1.26,0.98c-0.35,0.42-0.62,0.9-0.82,1.46
			s-0.3,1.16-0.3,1.79c0,0.64,0.1,1.24,0.3,1.8c0.2,0.56,0.48,1.05,0.84,1.47s0.78,0.74,1.27,0.99c0.49,0.25,1.03,0.37,1.61,0.37
			s1.12-0.12,1.61-0.36s0.91-0.57,1.26-0.98c0.35-0.41,0.62-0.9,0.82-1.46s0.3-1.16,0.3-1.79
			C373.74,182.05,373.64,181.45,373.44,180.89z"/>
		<path class="st4" d="M388.06,177.09h1.12v11.17h-0.92l-6.58-9.16v9.16h-1.12v-11.17h1.08l6.42,8.95V177.09z"/>
		<path class="st4" d="M402.63,178.24h-6.21v3.81h5.56v1.15h-5.56v3.91h6.29v1.15h-7.44v-11.17h7.37V178.24z"/>
		<path class="st4" d="M409.22,180.59c0.08,0.21,0.22,0.41,0.42,0.58s0.49,0.34,0.84,0.48c0.36,0.14,0.82,0.28,1.38,0.41
			c1.14,0.28,1.97,0.66,2.51,1.15c0.54,0.49,0.81,1.17,0.81,2.03c0,0.48-0.09,0.92-0.26,1.31c-0.17,0.39-0.41,0.73-0.71,1.01
			s-0.67,0.49-1.09,0.64c-0.43,0.15-0.89,0.22-1.4,0.22c-0.81,0-1.56-0.14-2.23-0.43c-0.67-0.29-1.32-0.73-1.93-1.34l0.71-0.92
			c0.53,0.53,1.07,0.93,1.62,1.19c0.54,0.26,1.17,0.39,1.88,0.39c0.69,0,1.24-0.18,1.65-0.53c0.41-0.35,0.62-0.81,0.62-1.39
			c0-0.27-0.04-0.5-0.12-0.71c-0.08-0.21-0.21-0.4-0.41-0.57c-0.19-0.17-0.46-0.32-0.81-0.46c-0.34-0.14-0.79-0.27-1.32-0.4
			c-0.58-0.14-1.09-0.3-1.52-0.48c-0.43-0.18-0.79-0.4-1.07-0.66c-0.28-0.26-0.49-0.55-0.63-0.89c-0.14-0.34-0.2-0.75-0.2-1.21
			c0-0.45,0.08-0.86,0.25-1.23c0.16-0.37,0.4-0.7,0.7-0.97s0.66-0.48,1.06-0.64c0.41-0.16,0.85-0.23,1.34-0.23
			c0.75,0,1.4,0.11,1.96,0.34c0.56,0.22,1.1,0.56,1.62,1.02l-0.67,0.97c-0.48-0.42-0.95-0.73-1.43-0.92s-0.98-0.29-1.51-0.29
			c-0.33,0-0.63,0.05-0.89,0.14c-0.27,0.1-0.5,0.22-0.68,0.38c-0.19,0.16-0.33,0.35-0.44,0.58s-0.15,0.46-0.15,0.72
			C409.11,180.14,409.14,180.38,409.22,180.59z"/>
		<path class="st4" d="M437.79,188.26h-1.24l-1.19-2.95h-5.55l-1.21,2.95h-1.18l4.64-11.25h1.08L437.79,188.26z M432.6,178.5
			l-2.33,5.7h4.64L432.6,178.5z"/>
		<path class="st4" d="M450.02,188.26l-2.95-4.34h-2.91v4.34H443v-11.17h4.38c0.56,0,1.07,0.08,1.52,0.24s0.84,0.39,1.16,0.68
			c0.32,0.29,0.57,0.64,0.74,1.05c0.17,0.41,0.26,0.86,0.26,1.36c0,0.47-0.07,0.89-0.2,1.25c-0.14,0.37-0.33,0.69-0.58,0.96
			c-0.25,0.27-0.54,0.5-0.88,0.68c-0.34,0.18-0.71,0.31-1.11,0.38l3.13,4.56H450.02z M449.23,178.84c-0.46-0.39-1.1-0.58-1.93-0.58
			h-3.15v4.55h3.14c0.38,0,0.73-0.05,1.05-0.16c0.32-0.11,0.6-0.26,0.83-0.46s0.42-0.44,0.55-0.73c0.13-0.29,0.2-0.61,0.2-0.98
			C449.92,179.78,449.69,179.23,449.23,178.84z"/>
		<path class="st4" d="M466.22,188.26h-1.24l-1.19-2.95h-5.55l-1.21,2.95h-1.18l4.64-11.25h1.08L466.22,188.26z M461.02,178.5
			l-2.33,5.7h4.64L461.02,178.5z"/>
		<path class="st4" d="M472.68,177.09v11.17h-1.15v-11.17H472.68z"/>
		<path class="st4" d="M478.62,178.21v-1.12h7.95v0.85l-6.61,9.2h6.61v1.12h-8.17v-0.85l6.59-9.2H478.62z"/>
		<path class="st4" d="M501.64,188.26h-1.24l-1.19-2.95h-5.55l-1.21,2.95h-1.18l4.64-11.25H497L501.64,188.26z M496.45,178.5
			l-2.33,5.7h4.64L496.45,178.5z"/>
	</g>
	<g>
		<path class="st5" d="M72.64,90.87H52.72c-1.71,0-3.09-1.38-3.09-3.09V67.85c0-1.71,1.38-3.09,3.09-3.09h19.93
			c1.71,0,3.09,1.38,3.09,3.09v19.93C75.73,89.49,74.35,90.87,72.64,90.87z"/>
	</g>
	<g>
		<path class="st5" d="M85.92,42.29H74.56c-0.97,0-1.76-0.79-1.76-1.76V29.17c0-0.97,0.79-1.76,1.76-1.76h11.36
			c0.97,0,1.76,0.79,1.76,1.76v11.36C87.68,41.5,86.89,42.29,85.92,42.29z"/>
	</g>
	<g>
		<path class="st4" d="M45.95,61.7h-8.59c-0.74,0-1.33-0.6-1.33-1.33v-8.59c0-0.74,0.6-1.33,1.33-1.33h8.59
			c0.74,0,1.33,0.6,1.33,1.33v8.59C47.29,61.11,46.69,61.7,45.95,61.7z"/>
	</g>
	<path class="st4" d="M162.48,97.38c-2.76,2.77-5.53,5.54-8.29,8.32c-0.1,0.1-0.19,0.22-0.35,0.4c1.81,0,3.5,0,5.19,0
		c4.34,0,22.94,0,33.66,0V71.75c0-6.9-5.59-12.48-12.48-12.48H99.75c-6.9,0-12.48,5.59-12.48,12.48v80.46
		c0,6.9,5.59,12.48,12.48,12.48h80.46c6.9,0,12.48-5.59,12.48-12.48v-34.04c-11.56,0.01-32.69,0-38.33,0c-0.14,0-0.29,0-0.43,0
		c-0.02,0.05-0.03,0.1-0.05,0.14c1.14,1.12,2.28,2.23,3.41,3.36c2.01,2.01,4.03,4.01,5.99,6.06c0.74,0.78,1.04,1.87,0.94,2.92
		c-0.02,0.89-0.35,1.73-1.03,2.48c-0.82,0.89-1.66,1.78-2.57,2.58c-1.75,1.55-4.02,1.45-5.69-0.22
		c-2.73-2.72-16.87-16.95-20.32-20.38c-1.04-1.04-1.46-2.25-1.24-3.7c0.15-0.96,0.64-1.72,1.31-2.39c2.87-2.87,5.74-5.74,8.61-8.61
		c3.84-3.84,7.68-7.69,11.52-11.52c1.69-1.69,3.99-1.79,5.76-0.22c0.92,0.81,1.77,1.71,2.6,2.61c1.09,1.19,1.29,2.59,0.79,4.1
		C163.69,96.23,163.07,96.79,162.48,97.38z"/>
</g>
<g id="grid" class="st13">
</g>
</svg>
