<?xml version="1.0" encoding="utf-8"?>
<!-- Generator: Adobe Illustrator 16.0.3, SVG Export Plug-In . SVG Version: 6.00 Build 0)  -->
<!DOCTYPE svg PUBLIC "-//W3C//DTD SVG 1.1//EN" "http://www.w3.org/Graphics/SVG/1.1/DTD/svg11.dtd">
<svg version="1.1" id="Capa_1" xmlns="http://www.w3.org/2000/svg" xmlns:xlink="http://www.w3.org/1999/xlink" x="0px" y="0px"
	 width="544px" height="171px" viewBox="35.5 292.5 544 171" enable-background="new 35.5 292.5 544 171" xml:space="preserve">
<g id="Layer_1">
	<g>
		<path fill="#293641" d="M264.664,436.262h-9.246v18.188h-12.173v-60.631h22.606c13.202,0,21.182,8.579,21.182,20.956v0.17
			C287.033,428.982,277.075,436.262,264.664,436.262z M274.702,415.034c0-5.979-3.798-9.178-9.879-9.178h-9.404v18.537h9.642
			c6.081,0,9.642-3.979,9.642-9.178V415.034z"/>
		<path fill="#293641" d="M297.613,454.449v-60.631h12.173v48.502h27.58v12.129H297.613z"/>
		<path fill="#293641" d="M389.282,454.449l-5.053-13.598h-23.387l-5.052,13.598H343.38l23.714-61.06h11.224l23.715,61.06H389.282z
			 M372.53,409.405l-7.347,19.668h14.694L372.53,409.405z"/>
		<path fill="#293641" d="M430.063,406.116v48.333h-12.173v-48.333H401.06v-12.298h45.835v12.298H430.063z"/>
		<path fill="#DC994A" d="M491.858,454.449l-5.053-13.598H463.42l-5.053,13.598h-12.411l23.703-61.06h11.224l23.703,61.06H491.858z
			 M475.107,409.405l-7.348,19.668h14.694L475.107,409.405z"/>
		<path fill="#DC994A" d="M554.286,454.449l-5.053-13.598h-23.397l-5.053,13.598h-12.411l23.703-61.06h11.224l23.703,61.06H554.286z
			 M537.534,409.405l-7.347,19.668h14.694L537.534,409.405z"/>
	</g>
	<g>
		<path fill="#DC994A" d="M82.106,375.304H59.59c-1.933,0-3.493-1.56-3.493-3.493v-22.527c0-1.933,1.56-3.493,3.493-3.493h22.527
			c1.933,0,3.493,1.56,3.493,3.493v22.527C85.599,373.744,84.039,375.304,82.106,375.304z"/>
	</g>
	<g>
		<path fill="#DC994A" d="M97.117,320.393H84.276c-1.096,0-1.989-0.893-1.989-1.989v-12.841c0-1.096,0.893-1.989,1.989-1.989h12.841
			c1.096,0,1.989,0.893,1.989,1.989v12.841C99.106,319.5,98.213,320.393,97.117,320.393z"/>
	</g>
	<g>
		<path fill="#293641" d="M51.938,342.333h-9.709c-0.836,0-1.503-0.678-1.503-1.503v-9.709c0-0.836,0.678-1.503,1.503-1.503h9.709
			c0.836,0,1.503,0.678,1.503,1.503v9.709C53.453,341.666,52.774,342.333,51.938,342.333z"/>
	</g>
	<path fill="#293641" d="M183.654,382.662c-3.12,3.131-6.25,6.262-9.371,9.404c-0.113,0.113-0.214,0.249-0.396,0.452
		c2.046,0,3.956,0,5.867,0c4.905,0,25.929,0,38.046,0v-38.826c0-7.799-6.318-14.106-14.106-14.106H112.75
		c-7.799,0-14.106,6.318-14.106,14.106v90.945c0,7.799,6.318,14.106,14.106,14.106h90.945c7.799,0,14.106-6.318,14.106-14.106
		v-38.477c-13.066,0.012-36.95,0-43.325,0c-0.158,0-0.328,0-0.486,0c-0.023,0.057-0.034,0.113-0.057,0.159
		c1.289,1.266,2.577,2.521,3.854,3.798c2.271,2.271,4.555,4.532,6.771,6.85c0.836,0.881,1.175,2.113,1.063,3.3
		c-0.022,1.007-0.396,1.956-1.164,2.804c-0.927,1.006-1.876,2.012-2.905,2.916c-1.978,1.752-4.544,1.639-6.432-0.249
		c-3.085-3.074-19.068-19.158-22.968-23.035c-1.176-1.176-1.65-2.544-1.402-4.183c0.17-1.085,0.724-1.944,1.481-2.701
		c3.244-3.244,6.488-6.488,9.732-9.732c4.34-4.34,8.681-8.692,13.021-13.021c1.91-1.91,4.51-2.023,6.51-0.249
		c1.04,0.916,2.001,1.933,2.939,2.95c1.232,1.345,1.458,2.927,0.893,4.634C185.022,381.362,184.321,381.996,183.654,382.662z"/>
</g>
</svg>
