<?xml version="1.0" encoding="utf-8"?>
<!-- Generator: Adobe Illustrator 16.0.3, SVG Export Plug-In . SVG Version: 6.00 Build 0)  -->
<!DOCTYPE svg PUBLIC "-//W3C//DTD SVG 1.1//EN" "http://www.w3.org/Graphics/SVG/1.1/DTD/svg11.dtd">
<svg version="1.1" id="Ñëîé_3" xmlns="http://www.w3.org/2000/svg" xmlns:xlink="http://www.w3.org/1999/xlink" x="0px" y="0px"
	 width="850.563px" height="600px" viewBox="0 0 850.563 600" enable-background="new 0 0 850.563 600" xml:space="preserve">
<g>
	<path fill="#F4C914" d="M139.589,277.403l37.299,5.463c3.091,0.453,4.321,4.253,2.082,6.432l-27.023,26.282
		c-0.889,0.865-1.296,2.112-1.087,3.335l6.331,37.161c0.524,3.08-2.71,5.424-5.474,3.968l-33.347-17.579
		c-1.097-0.579-2.409-0.58-3.508-0.004l-33.386,17.504c-2.767,1.45-5.996-0.901-5.464-3.979l6.414-37.147
		c0.211-1.223-0.193-2.471-1.08-3.337L54.38,289.158c-2.234-2.183-0.996-5.981,2.096-6.427l37.311-5.379
		c1.228-0.177,2.29-0.947,2.84-2.059l16.721-33.785c1.386-2.8,5.38-2.795,6.76,0.007l16.646,33.823
		C137.302,276.452,138.362,277.224,139.589,277.403z"/>
	<path fill="#F4C914" d="M289.11,277.403l37.299,5.463c3.091,0.453,4.321,4.253,2.082,6.432l-27.023,26.282
		c-0.889,0.865-1.296,2.112-1.088,3.335l6.331,37.161c0.525,3.08-2.709,5.424-5.473,3.968l-33.347-17.579
		c-1.097-0.579-2.409-0.58-3.508-0.004l-33.386,17.504c-2.767,1.45-5.996-0.901-5.465-3.979l6.415-37.147
		c0.211-1.223-0.193-2.471-1.081-3.337l-26.964-26.343c-2.235-2.183-0.996-5.981,2.096-6.427l37.311-5.379
		c1.228-0.177,2.29-0.947,2.84-2.059l16.721-33.785c1.386-2.8,5.38-2.795,6.76,0.007l16.646,33.823
		C286.822,276.452,287.883,277.224,289.11,277.403z"/>
	<path fill="#F4C914" d="M438.631,277.403l37.299,5.463c3.092,0.453,4.321,4.253,2.082,6.432l-27.023,26.282
		c-0.89,0.865-1.297,2.112-1.088,3.335l6.33,37.161c0.525,3.08-2.709,5.424-5.473,3.968l-33.347-17.579
		c-1.097-0.579-2.409-0.58-3.508-0.004l-33.386,17.504c-2.767,1.45-5.996-0.901-5.464-3.979l6.414-37.147
		c0.211-1.223-0.192-2.471-1.08-3.337l-26.964-26.343c-2.235-2.183-0.996-5.981,2.096-6.427l37.312-5.379
		c1.228-0.177,2.29-0.947,2.84-2.059l16.722-33.785c1.385-2.8,5.38-2.795,6.76,0.007l16.645,33.823
		C436.344,276.452,437.404,277.224,438.631,277.403z"/>
	<path fill="#F4C914" d="M588.152,277.403l37.299,5.463c3.091,0.453,4.32,4.253,2.081,6.432l-27.023,26.282
		c-0.89,0.865-1.296,2.112-1.088,3.335l6.331,37.161c0.524,3.08-2.71,5.424-5.474,3.968l-33.347-17.579
		c-1.098-0.579-2.409-0.58-3.508-0.004l-33.387,17.504c-2.767,1.45-5.996-0.901-5.464-3.979l6.414-37.147
		c0.211-1.223-0.192-2.471-1.08-3.337l-26.965-26.343c-2.234-2.183-0.995-5.981,2.097-6.427l37.311-5.379
		c1.229-0.177,2.29-0.947,2.84-2.059l16.722-33.785c1.386-2.8,5.38-2.795,6.76,0.007l16.646,33.823
		C585.864,276.452,586.925,277.224,588.152,277.403z"/>
	<path fill="#F4C914" d="M737.673,277.403l37.299,5.463c3.091,0.453,4.321,4.253,2.081,6.432l-27.023,26.282
		c-0.889,0.865-1.296,2.112-1.088,3.335l6.331,37.161c0.524,3.08-2.71,5.424-5.474,3.968l-33.347-17.579
		c-1.097-0.579-2.409-0.58-3.507-0.004l-33.387,17.504c-2.768,1.45-5.996-0.901-5.465-3.979l6.414-37.147
		c0.211-1.223-0.192-2.471-1.08-3.337l-26.965-26.343c-2.234-2.183-0.995-5.981,2.097-6.427l37.311-5.379
		c1.229-0.177,2.29-0.947,2.841-2.059l16.721-33.785c1.386-2.8,5.381-2.795,6.76,0.007l16.646,33.823
		C735.385,276.452,736.445,277.224,737.673,277.403z"/>
	<g>
		<path fill="#F2AE16" d="M741.504,278.672c0.548,1.113,1.608,1.885,2.836,2.065l33.732,4.94c-0.351-1.384-1.459-2.571-3.101-2.811
			l-33.843-4.957L741.504,278.672z"/>
		<path fill="#F2AE16" d="M723.119,345.798c-0.316-0.167-0.651-0.271-0.993-0.343l27.673,14.588
			c0.348,0.184,0.701,0.307,1.055,0.375L723.119,345.798z"/>
		<path fill="#F2AE16" d="M680.761,359.318l6.414-37.146c0.211-1.223-0.192-2.471-1.08-3.338l-26.965-26.343
			c-2.234-2.184-0.995-5.981,2.097-6.427l37.311-5.379c1.229-0.177,2.29-0.947,2.84-2.059l16.722-33.785
			c0.272-0.55,0.646-0.987,1.08-1.321l-0.987-2.005c-1.379-2.803-5.373-2.808-6.76-0.007l-16.721,33.785
			c-0.55,1.112-1.612,1.881-2.84,2.059l-37.312,5.379c-3.092,0.446-4.331,4.244-2.097,6.427l26.965,26.343
			c0.888,0.866,1.291,2.115,1.08,3.337l-6.414,37.147c-0.531,3.078,2.697,5.43,5.465,3.979l1.2-0.63
			C680.76,359.33,680.76,359.324,680.761,359.318z"/>
	</g>
	<g>
		<linearGradient id="SVGID_1_" gradientUnits="userSpaceOnUse" x1="689.4365" y1="403.2695" x2="829.5908" y2="403.2695">
			<stop  offset="0" style="stop-color:#033D95"/>
			<stop  offset="1" style="stop-color:#024296"/>
		</linearGradient>
		<path fill="url(#SVGID_1_)" d="M827.585,422.823c-1.356-14.943-5.188-29.602-11.353-43.419l-9.813-21.986
			c-0.784-1.763-2.058-3.193-3.627-4.209c-2.271-1.467-5.142-2.039-7.975-1.402l-0.166,0.037c-5.705,1.273-9.055,6.903-7.273,12.229
			l7.135,21.358l-9.83-29.158l-0.259-0.775c-0.268-0.784-0.618-1.514-1.052-2.188c-2.382-3.738-7.117-5.694-11.75-4.568
			l-0.176,0.037c-3.618,0.877-6.295,3.415-7.402,6.534v0.01c-0.083,0.212-0.157,0.442-0.222,0.664
			c-0.222,0.822-0.351,1.671-0.351,2.538l-0.84-2.76c-1.68-5.5-7.67-8.722-13.467-7.236L749,348.576
			c-2.483,0.627-4.532,2.021-5.953,3.84c-0.859,1.098-1.496,2.354-1.847,3.691c-0.452,1.671-0.471,3.471,0.028,5.262l9.959,35.822
			l0.378,1.356l-0.471-1.385l-22.245-65.109c-1.817-5.298-7.688-8.298-13.309-6.793l-0.176,0.046
			c-0.259,0.064-0.508,0.147-0.757,0.24c-4.644,1.587-7.477,5.935-7.116,10.477c0.073,0.904,0.276,1.809,0.608,2.713l6.259,17.307
			l17.353,47.987l3.774,10.439l0.139,0.388c0.434,1.172-0.867,2.233-2.012,1.643l-22.891-20.795
			c-1.828-1.662-4.07-2.741-6.415-3.203c-2.511-0.508-5.132-0.305-7.495,0.655c-1.219,0.489-2.372,1.19-3.396,2.086
			c-0.462,0.397-0.887,0.831-1.273,1.302l-1.127-4.8l-0.904,6.131c-1.519,5.77,0,11.037,0,11.037v0.01
			c0.637,1.541,1.615,2.981,2.898,4.199l66.936,68.543l68.344-28.981l1.302-9.779L827.585,422.823z"/>
		<g>
			<g>
				<linearGradient id="SVGID_2_" gradientUnits="userSpaceOnUse" x1="714.8389" y1="320.8369" x2="935.5737" y2="675.7715">
					<stop  offset="0.1163" style="stop-color:#FFFFFF"/>
					<stop  offset="0.6807" style="stop-color:#719DD4"/>
				</linearGradient>
				<path fill="url(#SVGID_2_)" d="M823.747,441.926l-2.335-27.607c-1.202-14.205-4.648-28.13-10.211-41.256l-8.852-20.887
					c-1.735-4.096-6.17-6.343-10.498-5.321l-0.152,0.036c-5.166,1.22-8.205,6.576-6.602,11.637l6.808,21.489l-9.471-29.639
					c-1.555-4.866-6.636-7.674-11.584-6.401l-0.156,0.04c-5.313,1.367-8.415,6.886-6.823,12.135l8.891,29.304l-10.061-34.785
					c-1.512-5.226-6.93-8.277-12.183-6.861l-0.155,0.041c-5.298,1.429-8.448,6.868-7.051,12.175l9.301,35.325l-20.471-63.172
					c-1.631-5.033-6.949-7.877-12.041-6.438l-0.158,0.045c-5.481,1.55-8.507,7.413-6.594,12.778l24.807,72.317
					c0.396,1.109-0.786,2.123-1.822,1.563l-20.699-19.736c-4.342-4.141-11.254-4.473-15.67-0.409
					c-1.182,1.088-2.159,2.44-2.832,4.024l-0.057,0.133c-1.865,4.388-0.878,9.469,2.495,12.838l62.509,62.447L823.747,441.926z"/>
			</g>
			<g>
				<linearGradient id="SVGID_3_" gradientUnits="userSpaceOnUse" x1="817.4521" y1="505.3125" x2="711.0175" y2="303.5496">
					<stop  offset="0" style="stop-color:#57609E"/>
					<stop  offset="1" style="stop-color:#2762A9"/>
				</linearGradient>
				<path fill="url(#SVGID_3_)" d="M829.745,441.422l-2.335-27.607c-1.265-14.869-4.846-29.37-10.67-43.096l-8.853-20.888
					c-2.889-6.821-10.208-10.531-17.407-8.833l-0.157,0.037c-1.827,0.434-3.535,1.199-5.059,2.233
					c-3.766-4.495-9.913-6.664-15.912-5.113l-0.157,0.036c-2.197,0.563-4.199,1.569-5.907,2.945
					c-3.877-3.185-9.185-4.523-14.344-3.139l-0.147,0.046c-2.316,0.618-4.375,1.727-6.102,3.185l-4.827-14.906
					c-2.64-8.142-11.169-12.701-19.42-10.365l-0.139,0.036c-4.209,1.191-7.772,4.108-9.784,7.993
					c-1.92,3.729-2.279,8.113-1.033,12.037c0.055,0.166,0.11,0.332,0.166,0.488l6.701,19.531l11.796,34.383l-6.369-6.074
					c-6.729-6.415-17.224-6.617-23.896-0.479c-1.855,1.707-3.296,3.757-4.292,6.092l-0.056,0.139
					c-1.292,3.036-1.688,6.267-1.255,9.368c0.064,0.462,0.147,0.924,0.249,1.375c0.692,3.148,2.261,6.12,4.624,8.538
					c0.046,0.056,0.102,0.111,0.157,0.166l62.507,62.451c1.107,1.099,2.565,1.708,4.061,1.754c0.85,0.028,1.708-0.129,2.52-0.461
					l61.667-25.817c1.661-0.691,2.88-2.076,3.406-3.72C829.717,443.019,829.81,442.225,829.745,441.422z M702.609,394.818
					l0.055-0.138c0.323-0.757,0.785-1.412,1.376-1.957c0.083-0.083,0.175-0.157,0.268-0.222c0.941-0.748,2.132-1.098,3.332-1.052
					c1.375,0.046,2.769,0.581,3.849,1.615l20.694,19.733c0.388,0.369,0.821,0.684,1.292,0.941c0.646,0.352,1.32,0.591,2.012,0.729
					c2.17,0.452,4.449-0.11,6.213-1.615c2.316-1.984,3.146-5.122,2.15-7.929l-24.829-72.383c-0.489-1.366-0.083-2.492,0.202-3.037
					c0.277-0.553,0.97-1.541,2.373-1.938l0.139-0.037c1.993-0.563,4.052,0.535,4.688,2.501l20.473,63.171
					c0.655,2.021,2.279,3.462,4.199,3.96c0.028,0.019,0.065,0.019,0.093,0.028c0.996,0.249,2.067,0.239,3.119-0.065
					c3.129-0.923,4.957-4.162,4.126-7.31l-9.304-35.324c-0.554-2.104,0.701-4.264,2.806-4.836l0.148-0.037
					c2.076-0.563,4.245,0.664,4.836,2.723l0.535,1.837c0.065,1.246,0.286,2.492,0.665,3.72l8.889,29.306
					c0.858,2.843,3.637,4.578,6.488,4.209c0,0,0,0.009,0.01,0c0.323-0.037,0.646-0.102,0.969-0.194
					c3.166-0.932,4.984-4.255,4.062-7.439l-8.999-31.124c0.073-0.378,0.212-0.738,0.396-1.08c0.489-0.867,1.292-1.485,2.262-1.734
					l0.156-0.037c1.855-0.48,3.767,0.581,4.357,2.409l9.47,29.638c1.006,3.157,4.384,4.901,7.55,3.896
					c0.277-0.084,0.536-0.194,0.785-0.314c2.658-1.273,4.043-4.348,3.129-7.236l-6.812-21.487c-0.351-1.126,0.009-2.031,0.258-2.474
					c0.249-0.435,0.841-1.219,1.985-1.486l0.156-0.037c1.477-0.351,2.99,0.415,3.582,1.81l8.851,20.888
					c5.326,12.562,8.603,25.825,9.757,39.422l1.966,23.241l-53.904,22.567l-59.663-59.599
					C702.176,399.397,701.704,396.951,702.609,394.818z"/>
			</g>
		</g>
		<linearGradient id="SVGID_4_" gradientUnits="userSpaceOnUse" x1="834.498" y1="442.875" x2="762.349" y2="478.8727">
			<stop  offset="0" style="stop-color:#033D95"/>
			<stop  offset="1" style="stop-color:#4060A3"/>
		</linearGradient>
		<path fill="url(#SVGID_4_)" d="M759.945,481.665v-8.304c0,0,1.086,1.345,6.488-0.917c5.403-2.263,58.234-24.38,58.234-24.38
			s4.947-1.564,4.923-5.16l-1.302,9.779L759.945,481.665z"/>
	</g>
</g>
</svg>
